<svg xmlns="http://www.w3.org/2000/svg" viewBox="0 0 64 64">
  <rect width="64" height="64" fill="#1a1a2e"/>
  <ellipse cx="32" cy="32" rx="24" ry="18" fill="#8b0000"/>
  <polygon points="8,20 20,14 16,28" fill="#8b0000"/>
  <polygon points="56,20 44,14 48,28" fill="#8b0000"/>
  <polygon points="14,14 10,4 18,8" fill="#660000"/>
  <polygon points="50,14 54,4 46,8" fill="#660000"/>
  <circle cx="24" cy="28" r="5" fill="#f1c40f"/>
  <circle cx="40" cy="28" r="5" fill="#f1c40f"/>
  <ellipse cx="24" cy="28" rx="2" ry="4" fill="#2c3e50"/>
  <ellipse cx="40" cy="28" rx="2" ry="4" fill="#2c3e50"/>
  <path d="M22 38 L28 42 L32 36 L36 42 L42 38" fill="none" stroke="#f1c40f" stroke-width="1.5"/>
  <path d="M16 44 Q24 56 32 44 Q40 56 48 44" fill="none" stroke="#ff6b6b" stroke-width="2" opacity="0.6"/>
</svg>